<svg width="45" height="41" viewBox="0 0 45 41" fill="none" xmlns="http://www.w3.org/2000/svg">
<path d="M24.2886 19.7062L29.833 14.8487L11.9249 6.0308C10.738 5.469 9.62613 5.39015 8.65113 6.00451L24.2886 19.7062ZM30.778 25.3932L36.5418 22.553C37.6668 22.001 38.2836 21.2191 38.2836 20.3518C38.2836 19.4861 37.6668 18.7025 36.5436 18.1506L31.3255 15.583L25.4511 20.7279L30.778 25.3932V25.3932ZM7.68738 7.19875C7.56738 7.52236 7.49988 7.88375 7.49988 8.27964V32.4354C7.49988 33.0612 7.65738 33.6 7.94238 34.0288L23.1243 20.7263L7.68738 7.19875ZM24.2886 21.7448L9.19113 34.9733C9.47988 35.0702 9.79113 35.1212 10.1193 35.1212C10.7043 35.1212 11.3136 34.97 11.9343 34.6678L29.2874 26.1307L24.2886 21.7448V21.7448Z" fill="white"/>
</svg>
